<?xml version="1.0" encoding="utf-8"?>
<!-- Svg Vector Icons : http://www.onlinewebfonts.com/icon -->
<!DOCTYPE svg PUBLIC "-//W3C//DTD SVG 1.1//EN" "http://www.w3.org/Graphics/SVG/1.1/DTD/svg11.dtd">
<svg version="1.1" xmlns="http://www.w3.org/2000/svg" xmlns:xlink="http://www.w3.org/1999/xlink" x="0px" y="0px" viewBox="0 0 1000 1000" enable-background="new 0 0 1000 1000" xml:space="preserve">
<metadata> Svg Vector Icons : http://www.onlinewebfonts.com/icon </metadata>
<g><g transform="translate(0.000000,502.000000) scale(0.100000,-0.100000)"><path d="M4638.5,4912.1c-1226.2-97.8-2333.2-621.9-3187.8-1511.8c-367.7-381.4-616-739.3-860.5-1238c-228.8-465.5-371.6-927-451.8-1447.2c-50.8-326.6-50.8-1060-2-1378.8c82.1-535.8,228.8-1003.3,463.5-1476.6C1812.5-4596.6,4795-5588.2,7220-4342.4c948.5,487,1656.5,1194.9,2143.5,2143.5c530,1032.6,670.8,2186.5,406.8,3344.3c-111.5,492.8-389.2,1136.3-674.7,1564.6c-796,1196.9-2032,1973.3-3457.7,2170.8C5383.6,4916,4888.8,4931.7,4638.5,4912.1z M5401.2,4538.6c852.7-80.2,1636.9-383.3,2337.1-907.5c244.5-183.8,680.6-618,862.5-862.5c385.3-514.3,643.4-1044.3,788.2-1617.4c105.6-416.6,136.9-672.8,136.9-1130.4c0-598.4-88-1089.3-289.5-1609.6c-801.8-2071.1-2957-3266-5116.2-2837.8C2723.9-4150.7,1558.2-3253,922.6-1964.2C611.7-1334.5,463-693,463,20.8c0,512.4,70.4,954.4,228.8,1427.7C1352.9,3437.5,3324.3,4732.2,5401.2,4538.6z"/><path d="M3598.1,2260.1c-33.2-13.7-70.4-43-82.1-66.5c-29.3-54.8-29.3-4290.8,0-4347.6c27.4-50.8,134.9-95.8,193.6-80.2c64.5,17.6,3463.6,2092.6,3504.7,2141.5c45,50.8,45,176,1.9,226.9c-19.6,21.5-752.9,477.2-1629.1,1011.1c-876.2,535.9-1646.7,1005.2-1711.3,1044.3C3731,2281.7,3678.2,2293.4,3598.1,2260.1z M5342.6,861.8C6085.7,410,6694,32.6,6697.9,24.8c3.9-11.7-1660.4-1038.5-2757.6-1701.5l-74.3-45V20.8v1744.5l64.5-39.1C3963.8,1704.7,4601.3,1315.5,5342.6,861.8z"/></g></g>
</svg>